# xmcd CD Database Entry
#
# Track frame offsets:
# 182
# 17520
# 31547
# 46157
# 59137
# 71670
# 88845
# 103015
# 118025
# 136630
# 160387
#
# Disc length: 2315 seconds
#
# Revision: 3
# Processed by: cddbd v1.4b41PL1 Copyright (c) Steve Scherf et al.
# Submitted via: tcd 2.0b
#
DISCID=8c09090b
DTITLE=Kylie Flemming - The Key
DYEAR=1900
DGENRE=
TTITLE0=From Where I Stand
TTITLE1=The Only Hope
TTITLE2=The Key
TTITLE3=Where You Want Me to Be
TTITLE4=Water Colours
TTITLE5=Song For Cheryl
TTITLE6=Best Friend
TTITLE7=Trust In You
TTITLE8=Take my Hand
TTITLE9=Holding out for A Hero
TTITLE10=Nothing to Lose
EXTD=
EXTT0=
EXTT1=
EXTT2=
EXTT3=
EXTT4=
EXTT5=
EXTT6=
EXTT7=
EXTT8=
EXTT9=
EXTT10=
PLAYORDER=
